<?xml version="1.0" standalone="no"?>
<!DOCTYPE svg PUBLIC "-//W3C//DTD SVG 20010904//EN"
 "http://www.w3.org/TR/2001/REC-SVG-20010904/DTD/svg10.dtd">
<svg version="1.0" xmlns="http://www.w3.org/2000/svg"
 width="500.000000pt" height="500.000000pt" viewBox="0 0 500.000000 500.000000"
 preserveAspectRatio="xMidYMid meet">
<metadata>
Created by potrace 1.11, written by Peter Selinger 2001-2013
</metadata>
<g transform="translate(0.000000,500.000000) scale(0.100000,-0.100000)"
fill="#000000" stroke="none">
<path d="M2065 4599 c-220 -127 -418 -241 -440 -254 -22 -12 -107 -62 -190
-110 -82 -48 -168 -97 -190 -110 -22 -12 -96 -55 -165 -94 -69 -40 -143 -83
-165 -96 -50 -28 -337 -195 -388 -225 -20 -12 -37 -23 -37 -25 0 -2 26 -18 57
-35 46 -25 357 -205 433 -250 8 -5 74 -43 145 -83 72 -41 153 -88 181 -104 27
-17 70 -41 95 -55 24 -14 84 -48 132 -77 49 -28 93 -51 98 -51 5 0 9 -4 9 -10
0 -5 4 -10 10 -10 5 0 55 -27 111 -60 55 -33 103 -60 105 -60 2 0 23 -12 46
-26 23 -14 60 -36 82 -49 23 -12 140 -79 260 -149 121 -70 225 -125 233 -122
7 3 38 21 68 41 31 19 57 35 60 35 2 0 65 36 141 80 75 44 140 80 144 80 4 0
13 6 19 14 9 11 -3 22 -66 59 -151 88 -961 555 -1173 677 -118 68 -223 129
-232 135 -15 10 5 24 137 101 184 105 139 79 550 317 181 105 335 190 341 190
6 0 50 -23 97 -51 47 -29 88 -52 91 -52 2 0 41 -22 86 -50 45 -27 83 -50 85
-50 3 0 42 -22 87 -49 141 -83 590 -342 648 -374 30 -16 60 -33 65 -38 8 -6
95 -56 245 -141 19 -11 49 -29 66 -39 36 -22 46 -19 119 26 28 18 75 46 105
62 30 17 97 55 148 84 51 30 104 60 118 68 14 7 22 17 17 21 -8 9 -131 82
-248 147 -33 19 -73 42 -90 52 -37 23 -606 351 -660 381 -22 12 -77 44 -123
71 -45 27 -85 49 -88 49 -3 0 -17 8 -32 19 -22 15 -356 208 -482 279 -19 10
-82 47 -138 81 -57 33 -109 61 -115 61 -7 0 -192 -104 -412 -231z"/>
<path d="M2220 4084 c-135 -79 -252 -147 -260 -151 -15 -7 -370 -211 -423
-243 l-28 -16 28 -14 c16 -8 44 -24 63 -36 73 -44 368 -214 382 -219 9 -4 115
52 252 131 141 81 242 134 252 130 13 -5 192 -108 894 -514 118 -68 231 -133
250 -144 19 -11 80 -46 135 -78 55 -32 121 -70 148 -84 l47 -27 1 23 c0 13 1
137 2 276 l2 253 -45 27 c-51 30 -104 61 -170 97 -25 14 -52 30 -60 35 -23 15
-342 200 -345 200 -2 0 -69 39 -355 205 -102 59 -203 118 -225 130 -101 56
-238 136 -258 150 -12 8 -26 15 -32 14 -5 0 -120 -65 -255 -145z"/>
<path d="M468 3637 c-4 -10 -3 -520 1 -538 1 -7 256 -159 266 -159 4 0 19 -8
33 -19 28 -19 111 -67 149 -85 13 -6 23 -14 23 -18 0 -5 4 -8 8 -8 9 0 115
-60 672 -383 190 -110 361 -209 380 -220 19 -10 124 -71 232 -133 109 -63 203
-117 211 -119 10 -4 12 50 12 271 l-1 277 -129 75 c-72 41 -220 127 -330 190
-110 64 -281 162 -380 218 -99 57 -185 108 -192 114 -7 5 -14 10 -17 10 -3 0
-43 22 -88 49 -46 27 -99 58 -118 69 -105 59 -246 141 -417 240 -106 62 -195
112 -198 112 -2 0 -29 16 -59 35 -36 23 -55 30 -58 22z"/>
<path d="M4400 3605 c-30 -18 -73 -45 -95 -58 -22 -14 -60 -36 -85 -50 -25
-14 -83 -47 -130 -74 l-85 -49 -1 -277 c0 -152 1 -277 2 -277 1 0 73 41 160
91 88 50 177 101 199 114 80 45 115 67 116 73 1 4 3 127 4 275 1 304 7 287
-85 232z"/>
<path d="M2895 2733 c-146 -83 -390 -225 -395 -230 -6 -5 -7 -553 -1 -553 2 0
83 46 180 102 97 56 196 113 221 126 84 47 78 21 78 328 -1 151 -1 274 -2 273
-1 0 -37 -21 -81 -46z"/>
<path d="M916 2195 c-20 -14 -38 -25 -40 -25 -2 0 -70 -39 -152 -86 -82 -48
-165 -95 -184 -106 -19 -11 -39 -23 -43 -28 -7 -6 74 -56 258 -160 22 -12 153
-88 290 -168 138 -80 268 -155 290 -167 22 -12 166 -96 320 -185 154 -89 300
-174 325 -188 25 -14 124 -71 220 -127 96 -56 198 -114 226 -129 l52 -28 203
118 c112 64 287 165 389 224 220 127 632 365 675 390 17 10 149 86 295 170
146 84 270 156 275 160 6 4 37 22 70 40 33 18 64 36 68 40 5 4 -11 19 -35 33
-23 14 -124 72 -224 130 -195 113 -219 124 -237 109 -7 -6 -201 -119 -432
-252 -231 -133 -453 -262 -493 -286 -40 -24 -74 -44 -76 -44 -2 0 -109 -61
-237 -136 -129 -74 -237 -136 -240 -137 -5 -2 -410 230 -759 433 -63 37 -135
78 -160 92 -25 14 -61 34 -80 45 -19 12 -118 69 -220 128 -102 59 -202 116
-223 127 -20 11 -40 24 -43 29 -9 16 -40 10 -78 -16z"/>
<path d="M465 1635 c0 -166 4 -278 10 -284 10 -9 184 -112 289 -170 28 -16
177 -102 331 -191 154 -90 296 -172 315 -183 19 -10 167 -95 328 -189 161 -93
307 -177 325 -187 18 -10 115 -67 217 -126 102 -59 190 -108 195 -108 8 0 183
97 255 142 8 5 101 59 205 119 105 60 289 167 410 237 121 70 308 178 415 240
107 61 254 146 327 188 72 42 147 85 165 95 130 75 214 125 223 133 14 14 15
549 1 549 -5 0 -56 -27 -113 -60 -56 -33 -107 -60 -113 -60 -5 0 -10 -4 -10
-9 0 -5 -8 -11 -17 -15 -10 -3 -25 -10 -33 -16 -14 -9 -216 -126 -299 -172
-19 -11 -102 -59 -185 -107 -83 -49 -171 -100 -196 -113 -25 -14 -130 -75
-235 -136 -104 -61 -327 -189 -494 -286 l-304 -176 -56 32 c-31 17 -166 95
-301 173 -135 78 -265 153 -290 167 -25 14 -85 49 -135 78 -49 29 -103 60
-120 70 -46 26 -362 208 -430 248 -33 19 -73 42 -90 52 -16 9 -118 68 -225
130 -107 62 -208 121 -225 130 -16 9 -55 31 -85 48 l-55 31 0 -274z"/>
</g>
</svg>
